<svg display="none" xmlns="http://www.w3.org/2000/svg">
  <symbol id="firstLogo" viewBox="0 0 67 70">
    <g>
      <path
        fill="none"
        stroke="#fff"
        stroke-miterlimit="50"
        stroke-width="4"
        d="M62.675 67.857v0L33.86 12.86v0L5.046 67.857v0z"
        clip-path='url("#xwjaa")'
      />
    </g>
    <g>
      <path
        fill="none"
        stroke="#f6f7fc"
        stroke-miterlimit="50"
        stroke-width="4"
        d="M33.5 0C52.002 0 67 14.87 67 33.214S52.002 66.43 33.5 66.43C14.998 66.429 0 51.558 0 33.214S14.998 0 33.5 0z"
        clip-path='url("#xwjab")'
      />
    </g>
    <g>
      <path
        fill="#fff"
        d="M33.86 62.857c1.99 0 3.602 1.599 3.602 3.572 0 1.972-1.612 3.57-3.602 3.57-1.99 0-3.602-1.598-3.602-3.57 0-1.973 1.613-3.572 3.602-3.572z"
      />
    </g>
    <g>
      <path
        fill="#fff"
        d="M60.516 62.857c1.99 0 3.602 1.599 3.602 3.572 0 1.972-1.613 3.57-3.602 3.57-1.99 0-3.602-1.598-3.602-3.57 0-1.973 1.613-3.572 3.602-3.572z"
      />
    </g>
    <g>
      <path
        fill="#fff"
        d="M5.043 62.857c1.99 0 3.602 1.599 3.602 3.572 0 1.972-1.613 3.57-3.602 3.57-1.99 0-3.602-1.598-3.602-3.57 0-1.973 1.613-3.572 3.602-3.572z"
      />
    </g>
  </symbol>
  <symbol id="scroll" viewBox="0 0 67 70">
  <g><g><path fill="#fff" d="M13.154 11.416a1.66 1.66 0 0 1-1.657 1.659 1.66 1.66 0 0 1 0-3.318 1.66 1.66 0 0 1 1.657 1.66zM12.45-.007c5.932.479 10.545 5.451 10.545 11.423V25.49c0 6.347-5.158 11.511-11.5 11.511C5.157 37.001 0 31.837 0 25.491V11.415C-.001 5.44 4.612.468 10.543-.007zm8.637 25.497V11.416c0-5.295-4.303-9.601-9.591-9.601-5.289 0-9.59 4.306-9.59 9.6V25.49c0 5.295 4.302 9.601 9.59 9.601s9.59-4.306 9.59-9.601z"/></g></g>
  </symbol>
</svg>